<?xml version="1.0" encoding="UTF-8" standalone="no"?>
<!DOCTYPE svg PUBLIC "-//W3C//DTD SVG 1.1//EN"
"http://www.w3.org/Graphics/SVG/1.1/DTD/svg11.dtd">


<!-- Page 1 -->
<svg x="0" y="0" width="100" height="120" viewBox="355 370 220 330" version="1.1" xmlns="http://www.w3.org/2000/svg" xmlns:xlink="http://www.w3.org/1999/xlink"
style="display: block;margin-left: auto;margin-right: auto;">
<defs>

<style type="text/css"><![CDATA[

.g0_1{ fill: #231F20; }
.g1_1{ fill: #F36F21; }
.g2_1{ fill: #CFAE66; }

]]></style>

</defs>
<path d="M0,0
L0,1286
L909,1286
L909,0 Z " 
fill="#FFFFFF" stroke="none" />
<path d="M387.2,637.2V617.9h-3v7.5c0,4.4,.1,8,-1.3,10.1c-1,1.5,-2.6,1.7,-3.7,1.7h-1.4v-3.1c.8,0,1.6,-.3,2,-.7c.5,-.7,.7,-2.1,.7,-5.4V614.8h10.4v22.4Z" class="g0_1" />
<path d="M399.5,637.2v-6.6l.1,-1.9l-2.4,6v2.5h-3.5V620.8h3.5v6.8l-.1,1.5l2.4,-6v-2.3H403v16.4Z" class="g0_1" />
<path d="M411.4,624.7c0,-.4,0,-.7,-.2,-1c-.3,-.3,-.7,-.4,-.9,-.4c-.5,0,-.7,.2,-.9,.4c-.3,.2,-.3,.7,-.3,1V633c0,.3,0,.8,.3,1.1c.2,.4,.5,.4,.9,.4c.3,0,.6,0,.9,-.4c.2,-.3,.2,-.8,.2,-1.1Zm3.5,8.8c0,.8,-.2,1.9,-1.1,2.9c-1,1,-2.4,1.1,-3.6,1.1c-1.1,0,-2.4,-.2,-3.4,-1.1c-1,-1,-1.2,-2.2,-1.2,-2.9v-12c0,-1,.1,-2.1,.7,-3c.4,-.7,1.4,-1.4,2.2,-1.6l2.3,-.8c.5,-.1,1.1,-.2,1.1,-.8v-.5h3v1.4c0,.7,-.2,2.1,-2.6,2.6l-2.5,.6c-.9,.2,-1.6,.9,-1.5,2c.8,-.7,1.7,-.9,2.8,-.9c1.1,0,2,.2,2.6,.7c.4,.3,1.2,1.2,1.2,2.9Z" class="g0_1" />
<path d="M423.2,625.1c0,-.4,-.1,-.9,-.3,-1.2c-.3,-.4,-.7,-.4,-.9,-.4c-.2,0,-.6,0,-.8,.4c-.3,.3,-.3,.8,-.3,1.2v2.5h2.3Zm3.4,8.4c0,1.5,-.5,2.3,-.8,2.7c-1,1.2,-2.3,1.3,-3.7,1.3c-1.1,0,-2.6,-.1,-3.6,-1.2c-1,-1.1,-1.1,-2.6,-1.1,-3.6v-7.8c0,-.8,0,-2.3,1.3,-3.4c.7,-.6,1.9,-1,3.3,-1c1.6,0,2.7,.5,3.4,1c.7,.7,1.2,1.8,1.2,3.6v5.3h-5.7v2.4c0,.3,0,.9,.1,1.2c.2,.5,.7,.5,1,.5c.4,0,.8,0,1,-.5c.1,-.3,.2,-.9,.2,-1.1v-.8h3.4Z" class="g0_1" />
<path d="M435,625c0,-.5,-.1,-1.1,-.2,-1.4c-.2,-.1,-.4,-.4,-.9,-.4c-.2,0,-.7,0,-1,.5c0,.1,-.2,.4,-.2,1.3v7.8c0,1,.2,1.4,.3,1.6c.2,.5,.7,.7,1,.7c.4,0,.7,-.1,.9,-.5c0,-.2,.1,-.5,.1,-1.6Zm-5.8,17V620.8h3.3l.1,1.3c.3,-.4,.6,-.7,1,-1c.6,-.3,1.3,-.6,2.1,-.6c.9,0,1.8,.5,2.3,1.3c.4,.7,.5,1.9,.5,2.8v9.9c0,.7,-.1,1.7,-.7,2.4c-.5,.8,-1.3,1,-2.1,1c-.8,0,-1.4,-.2,-1.9,-.6c-.5,-.3,-.8,-.6,-1,-1.2h-.1V642Z" class="g0_1" />
<path d="M443.2,637.2V623.8H440v-3h9.9v3h-3.2v13.4Z" class="g0_1" />
<path d="M457.1,629.3c-.7,.4,-1.5,1.1,-1.9,1.7c-.5,.8,-.6,1.5,-.6,2.2c0,.6,.1,.9,.3,1.2c.3,.5,.7,.6,1,.6c.5,0,.8,-.2,1,-.6c.2,-.3,.2,-.7,.2,-1.1Zm.3,7.9v-1.1c-.1,.2,-.5,.6,-1.1,1c-.6,.4,-1.4,.4,-2,.4c-1,0,-1.7,-.2,-2.3,-1c-.6,-.8,-.8,-2,-.8,-3.2c0,-2.2,.9,-3.4,1.9,-4.3c.8,-.7,2.2,-1.7,4,-2.6V625c0,-.3,0,-.8,-.3,-1.1c-.1,-.2,-.5,-.4,-.9,-.4c-.4,0,-.7,.2,-.9,.4c-.3,.4,-.3,.8,-.3,1.1v1.2h-3.3v-1.9c0,-.7,.2,-1.7,1,-2.5c1,-1.2,2.5,-1.3,3.6,-1.3c1,0,2.6,.1,3.6,1.3c.9,1,.9,2,.9,3v12.4Z" class="g0_1" />
<path d="M469,625c0,-.5,-.1,-1.1,-.3,-1.4c-.1,-.1,-.4,-.4,-.9,-.4c-.2,0,-.6,0,-.9,.5c-.1,.1,-.3,.4,-.3,1.3v7.8c0,1,.2,1.4,.3,1.6c.3,.5,.7,.7,1.1,.7c.4,0,.6,-.1,.8,-.5c.1,-.2,.2,-.5,.2,-1.6Zm-5.8,17V620.8h3.3v1.3c.3,-.4,.7,-.7,1.1,-1c.6,-.3,1.3,-.6,2,-.6c1,0,1.9,.5,2.3,1.3c.5,.7,.5,1.9,.5,2.8v9.9c0,.7,0,1.7,-.6,2.4c-.6,.8,-1.4,1,-2.2,1c-.7,0,-1.3,-.2,-1.9,-.6c-.4,-.3,-.8,-.6,-1,-1.2h-.1V642Z" class="g0_1" />
<path d="M480.9,637.2v-6.6l.1,-1.9l-2.5,6v2.5h-3.4V620.8h3.4v8.3l2.4,-6v-2.3h3.4v16.4Z" class="g0_1" />
<path d="M492.6,629.3c-.6,.4,-1.4,1.1,-1.9,1.7c-.4,.8,-.5,1.5,-.5,2.2c0,.6,.1,.9,.3,1.2c.2,.5,.7,.6,1,.6c.5,0,.7,-.2,.9,-.6c.2,-.3,.2,-.7,.2,-1.1Zm.4,7.9v-1.1c-.1,.2,-.5,.6,-1.1,1c-.6,.4,-1.4,.4,-2,.4c-1,0,-1.7,-.2,-2.3,-1c-.6,-.8,-.8,-2,-.8,-3.2c0,-2.2,.9,-3.4,1.9,-4.3c.8,-.7,2.2,-1.7,3.9,-2.6V625c0,-.3,0,-.8,-.2,-1.1c-.2,-.2,-.5,-.4,-.9,-.4c-.4,0,-.8,.2,-1,.4c-.2,.4,-.2,.8,-.2,1.1v1.2H487v-1.9c0,-.7,.1,-1.7,.9,-2.5c1.1,-1.2,2.6,-1.3,3.6,-1.3c1.1,0,2.7,.1,3.7,1.3c.9,1,.9,2,.9,3v12.4Z" class="g0_1" />
<path d="M504.5,637.2v-7.4h-2.3v7.4h-3.4V620.8h3.4v6h2.3v-6H508v16.4Z" class="g0_1" />
<path d="M519.8,633.2c0,.7,-.1,1.5,-.4,2.3c-.6,1.3,-1.9,2,-4.1,2c-1.6,0,-3.2,-.4,-4.1,-1.9c-.5,-.9,-.6,-1.9,-.6,-2.7v-8c0,-.7,.1,-1.9,.8,-2.8c.7,-1,2.3,-1.6,3.9,-1.6c1.2,0,2.7,.3,3.7,1.6c.8,1,.7,2,.7,2.7v2.3h-3.4V625c0,-.5,0,-.8,-.2,-1c-.1,-.3,-.4,-.5,-.8,-.5c-.3,0,-.7,.1,-.9,.4c-.3,.3,-.3,.8,-.3,1.1v7.8c0,.5,0,.9,.3,1.3c.2,.4,.5,.4,.9,.4c.2,0,.6,0,.8,-.4c.1,-.1,.2,-.4,.2,-1.2v-2h3.5Z" class="g0_1" />
<path d="M528.8,637.2l-1.9,-7.1h-1.1v7.1h-3.5V620.8h3.5v6.3h.9c.7,0,.9,-1.1,1,-1.5l.5,-2.6c.2,-.8,.6,-1.4,1,-1.7c.5,-.3,1.3,-.5,1.8,-.5h1.4v3.4h-.5c-.5,0,-.7,0,-.8,.7l-.5,2c-.1,.7,-.2,1.1,-.7,1.7l2.4,8.6Z" class="g0_1" />
<path d="M540.2,629.3c-.6,.4,-1.4,1.1,-1.9,1.7c-.4,.8,-.5,1.5,-.5,2.2c0,.6,.1,.9,.2,1.2c.3,.5,.8,.6,1.1,.6c.5,0,.7,-.2,.9,-.6c.2,-.3,.2,-.7,.2,-1.1Zm.4,7.9v-1.1c-.1,.2,-.5,.6,-1.1,1c-.6,.4,-1.4,.4,-2,.4c-1,0,-1.7,-.2,-2.3,-1c-.6,-.8,-.8,-2,-.8,-3.2c0,-2.2,.9,-3.4,1.9,-4.3c.8,-.7,2.2,-1.7,3.9,-2.6V625c0,-.3,0,-.8,-.2,-1.1c-.2,-.2,-.5,-.4,-.9,-.4c-.4,0,-.8,.2,-1,.4c-.2,.4,-.2,.8,-.2,1.1v1.2h-3.3v-1.9c0,-.7,.1,-1.7,.9,-2.5c1.1,-1.2,2.6,-1.3,3.6,-1.3c1.1,0,2.7,.1,3.7,1.3c.9,1,.9,2,.9,3v12.4Z" class="g0_1" />
<path d="M552.2,623.6h-1c-.2,0,-.7,0,-1,.3c-.4,.2,-.4,.7,-.4,1V626c0,.3,.1,.8,.2,1.1c.1,.4,.5,.8,1,.8h1.2Zm0,13.6v-6.5h-.5c-.5,0,-1.6,0,-1.6,1.6v3.1c0,1,-.2,1.4,-.6,1.8h-3.6c.1,-.2,.4,-.6,.6,-.9c.2,-.5,.2,-1.2,.2,-1.6v-2.8c0,-.6,0,-1.3,.6,-1.9c.3,-.4,.7,-.7,1.1,-.8v-.1c-.4,-.1,-.9,-.4,-1.3,-.8c-.6,-.7,-.7,-1.6,-.7,-2.2V624c0,-1,.5,-1.9,1.2,-2.4c.7,-.5,1.9,-.8,2.9,-.8h5.2v16.4Z" class="g0_1" />
<path d="M440.3,666.3V652.8h-2.4v13.5h-3.4V649.8h9.2v16.5Z" class="g0_1" />
<path d="M451.4,658.3c-.7,.4,-1.5,1.1,-1.9,1.8c-.5,.7,-.5,1.4,-.5,2.1c0,.6,0,1,.2,1.3c.3,.4,.7,.5,1.1,.5c.4,0,.7,-.2,.9,-.6c.2,-.3,.2,-.7,.2,-1.1Zm.3,8v-1.2c-.1,.2,-.4,.6,-1,1c-.7,.4,-1.4,.5,-2.1,.5c-1,0,-1.6,-.2,-2.2,-1c-.7,-.9,-.9,-2,-.9,-3.2c0,-2.3,1,-3.4,2,-4.3c.8,-.8,2.1,-1.8,3.9,-2.7v-1.3c0,-.4,0,-.8,-.2,-1.2c-.2,-.2,-.5,-.4,-1,-.4c-.4,0,-.7,.2,-.9,.4c-.3,.4,-.2,.8,-.2,1.2v1.1h-3.4v-1.9c0,-.7,.2,-1.7,1,-2.5c1.1,-1.1,2.6,-1.3,3.6,-1.3c1.1,0,2.7,.2,3.7,1.3c.8,1,.9,2,.9,3v12.5Z" class="g0_1" />
<path d="M462.6,654c0,-.4,0,-1.1,-.2,-1.3c-.1,-.2,-.4,-.4,-.9,-.4c-.2,0,-.6,0,-.9,.4c-.1,.1,-.3,.4,-.3,1.4v7.7c0,1,.2,1.5,.3,1.7c.3,.4,.7,.7,1.1,.7c.4,0,.6,-.2,.8,-.5c.1,-.3,.1,-.6,.1,-1.7Zm-5.7,17.1V649.8h3.2l.1,1.3c.3,-.4,.7,-.7,1.1,-.9c.5,-.4,1.3,-.7,2,-.7c1,0,1.9,.6,2.3,1.3c.5,.7,.5,2,.5,2.8v10c0,.7,0,1.6,-.6,2.4c-.6,.7,-1.4,.9,-2.2,.9c-.7,0,-1.4,-.2,-1.9,-.5c-.4,-.4,-.8,-.7,-1,-1.2l-.1,-.1v6Z" class="g0_1" />
<path d="M470.9,666.3V652.8h-3.2v-3h9.8v3h-3.2v13.5Z" class="g0_1" />
<path d="M484.9,666.3v-6.7l.1,-1.8l-2.4,6v2.5h-3.4V649.8h3.4v6.8l-.1,1.6l2.4,-6v-2.4h3.5v16.5Z" class="g0_1" />
<path d="M496.4,652.7h-1c-.3,0,-.7,0,-1,.2c-.4,.3,-.4,.7,-.4,1V655c0,.3,0,.8,.2,1.1c.1,.4,.5,.8,1,.8h1.2Zm0,13.6v-6.6h-.6c-.4,0,-1.5,0,-1.5,1.6v3.2c0,.9,-.2,1.4,-.6,1.8h-3.6v-.1c.1,-.1,.4,-.6,.5,-.9c.2,-.5,.2,-1.1,.2,-1.6V661c0,-.7,0,-1.4,.6,-2c.3,-.4,.8,-.6,1.2,-.8v-.1c-.5,-.1,-1,-.4,-1.3,-.8c-.7,-.7,-.8,-1.5,-.8,-2.2v-2c0,-1.1,.6,-2,1.3,-2.5c.7,-.5,1.9,-.8,2.9,-.8h5.1v16.5Z" class="g0_1" />
<path d="M402.1,440.3c16.2,-23,42.7,-36.7,70.9,-36.7c12.4,0,24.6,2.7,35.8,7.8c-.5,-.5,-1.1,-.9,-1.7,-1.3C492.6,399.8,475.6,394.4,457.9,394.4c-27.7,0,-53.7,13.5,-69.7,36.1c-13.2,18.6,-18.3,41.2,-14.4,63.7c3.8,22.4,16.2,42.1,34.8,55.2c.6,.4,1.1,.8,1.7,1.2C381.6,520.8,377.7,474.7,402.1,440.3Z" class="g1_1" />
<path d="M528.8,529.9c-16.3,23,-42.8,36.7,-71,36.7c-12.4,0,-24.6,-2.7,-35.8,-7.8c.5,.5,1.1,.9,1.7,1.3c14.5,10.2,31.5,15.7,49.2,15.7c27.7,0,53.7,-13.5,69.7,-36.1c13.2,-18.6,18.3,-41.2,14.5,-63.7c-3.9,-22.4,-16.3,-42.1,-34.9,-55.2c-.5,-.4,-1.1,-.8,-1.7,-1.2c28.7,29.7,32.6,75.9,8.3,110.3Z" class="g0_1" />
<path d="M452.6,499.6c0,0,-20.9,.5,-24.9,.3c-5.3,-.2,-12,-1.6,-13.2,-.2c-1.7,2,-2.5,10.2,-1.4,13.2c.3,.9,4.6,-.4,4.8,.3c0,0,-2.7,9.2,-1.3,11.6c1.4,2.2,8.7,7.2,10.5,9.4c.9,1.1,11,4.4,12.5,4.8c3,.9,7.6,-6.5,10,-5.3c0,0,-1.1,3.8,.3,3.9c1.3,.7,4.4,.8,5.2,0c1.7,-2,6.3,-22.9,6.3,-22.9c0,0,6.2,5.9,8.4,9.2c6.1,9.2,12.7,7.1,15,7.4l-2.7,5.4c3.5,1.7,6.7,5.7,11.9,8.4c3.7,1.9,16.2,5.7,22.1,8.8c4.7,2.5,9.4,6.7,11.4,10.3c1.8,3.4,3.3,2.8,3.3,2.8c0,0,-.5,-1.9,-1.2,-4c-1.2,-3.6,1.2,-3.4,1.2,-3.4c0,0,4.4,7.9,4.8,9.7c.9,4.1,3.5,7.2,3.5,7.2c0,0,1.2,-7,.5,-11.3c-1,-6.1,.5,-5.6,.5,-5.6c0,0,3.6,4.8,5.5,9.5c2.5,6,5.4,5.3,5.4,5.3c0,0,-2.1,-7.8,-3.1,-10.4c-1.7,-4.1,.1,-4.9,.1,-4.9c0,0,6.6,7.5,9.2,9.6c2.2,1.7,4.4,.9,4.4,.9c0,0,-4.5,-6.9,-5.3,-8.2c-1.9,-2.8,-1.5,-3.7,-1.5,-3.7c0,0,4.8,2.2,7.9,5.3c3.1,3,4.2,.8,4.2,.8c0,0,-7.9,-9.2,-10.5,-12.6c-2.7,-3.5,-19.7,-16.8,-23.9,-21.5c-2.2,-2.4,-18.2,-16.1,-23.4,-20.2c-5.3,-4,-8.7,-6.3,-8.7,-6.3c0,0,.8,-2.4,1.6,-3.9c.8,-1.5,1.3,-4.9,1.3,-4.9c0,0,4.8,-1.8,6.3,-1.8c1.6,.1,3.5,.8,3.5,.8c0,0,.8,-3.7,-2.3,-5.3c-3.2,-1.6,-7.8,-4,-8.5,-4.5c-1.8,-1.3,-15.8,3.8,-24.5,-4.9C472.3,473.2,455,442.2,443.4,428.6c-4.8,-5.5,-12.8,-15.2,-20.3,-25.2C412.2,389,405.5,375.6,403.7,373.3c0,0,-.5,4.5,1.7,8.4c2.2,3.8,10.1,17.1,10.1,17.1c0,0,-1.8,.3,-3.3,-1.2c-1.5,-1.5,-17.4,-21.1,-17.4,-21.1c0,0,-.7,3.8,.8,5.8c1.7,2.3,13.1,17.6,13.1,17.6c0,0,-3,-.5,-4.5,-2c-1.5,-1.5,-18.5,-16,-18.5,-16c0,0,-.8,2.8,2.9,6.7c1.2,1.3,13.8,14.7,13.8,14.7c0,0,-4.4,-1,-6.2,-2.8c-1.9,-1.9,-13.5,-5.8,-13.5,-5.8c0,0,.2,1.3,1.7,2.8c2.1,2.1,5.7,4.8,8.1,8.2l-4.3,-.9c.1,1,3.7,4.6,6.6,9.2c3.4,5.4,6.1,12.2,6.9,16.1c.9,4.3,6.6,18.6,7.3,21.3c2.7,9.7,17.6,17.6,17.6,17.6c.5,2.2,-1.1,4.2,-1.1,4.2c9.6,7.8,17.4,19.9,19.5,22.3c2.2,2.4,7.6,4.1,7.6,4.1Z" class="g2_1" />

</svg>
