<?xml version="1.0" encoding="UTF-8" standalone="no"?>
<!DOCTYPE svg PUBLIC "-//W3C//DTD SVG 1.1//EN"
"http://www.w3.org/Graphics/SVG/1.1/DTD/svg11.dtd">


<svg x="0" y="0" width="100" height="100" viewBox="355 370 220 220" version="1.1" xmlns="http://www.w3.org/2000/svg" xmlns:xlink="http://www.w3.org/1999/xlink"
style="display: block;margin-left: auto;margin-right: auto;">
<defs>

<style type="text/css"><![CDATA[

.g0_1{ fill: #231F20; }
.g1_1{ fill: #F36F21; }
.g2_1{ fill: #CFAE66; }

]]></style>

</defs>

<path d="M402.1,440.3c16.2,-23,42.7,-36.7,70.9,-36.7c12.4,0,24.6,2.7,35.8,7.8c-.5,-.5,-1.1,-.9,-1.7,-1.3C492.6,399.8,475.6,394.4,457.9,394.4c-27.7,0,-53.7,13.5,-69.7,36.1c-13.2,18.6,-18.3,41.2,-14.4,63.7c3.8,22.4,16.2,42.1,34.8,55.2c.6,.4,1.1,.8,1.7,1.2C381.6,520.8,377.7,474.7,402.1,440.3Z" class="g1_1" />
<path d="M528.8,529.9c-16.3,23,-42.8,36.7,-71,36.7c-12.4,0,-24.6,-2.7,-35.8,-7.8c.5,.5,1.1,.9,1.7,1.3c14.5,10.2,31.5,15.7,49.2,15.7c27.7,0,53.7,-13.5,69.7,-36.1c13.2,-18.6,18.3,-41.2,14.5,-63.7c-3.9,-22.4,-16.3,-42.1,-34.9,-55.2c-.5,-.4,-1.1,-.8,-1.7,-1.2c28.7,29.7,32.6,75.9,8.3,110.3Z" class="g0_1" />
<path d="M452.6,499.6c0,0,-20.9,.5,-24.9,.3c-5.3,-.2,-12,-1.6,-13.2,-.2c-1.7,2,-2.5,10.2,-1.4,13.2c.3,.9,4.6,-.4,4.8,.3c0,0,-2.7,9.2,-1.3,11.6c1.4,2.2,8.7,7.2,10.5,9.4c.9,1.1,11,4.4,12.5,4.8c3,.9,7.6,-6.5,10,-5.3c0,0,-1.1,3.8,.3,3.9c1.3,.7,4.4,.8,5.2,0c1.7,-2,6.3,-22.9,6.3,-22.9c0,0,6.2,5.9,8.4,9.2c6.1,9.2,12.7,7.1,15,7.4l-2.7,5.4c3.5,1.7,6.7,5.7,11.9,8.4c3.7,1.9,16.2,5.7,22.1,8.8c4.7,2.5,9.4,6.7,11.4,10.3c1.8,3.4,3.3,2.8,3.3,2.8c0,0,-.5,-1.9,-1.2,-4c-1.2,-3.6,1.2,-3.4,1.2,-3.4c0,0,4.4,7.9,4.8,9.7c.9,4.1,3.5,7.2,3.5,7.2c0,0,1.2,-7,.5,-11.3c-1,-6.1,.5,-5.6,.5,-5.6c0,0,3.6,4.8,5.5,9.5c2.5,6,5.4,5.3,5.4,5.3c0,0,-2.1,-7.8,-3.1,-10.4c-1.7,-4.1,.1,-4.9,.1,-4.9c0,0,6.6,7.5,9.2,9.6c2.2,1.7,4.4,.9,4.4,.9c0,0,-4.5,-6.9,-5.3,-8.2c-1.9,-2.8,-1.5,-3.7,-1.5,-3.7c0,0,4.8,2.2,7.9,5.3c3.1,3,4.2,.8,4.2,.8c0,0,-7.9,-9.2,-10.5,-12.6c-2.7,-3.5,-19.7,-16.8,-23.9,-21.5c-2.2,-2.4,-18.2,-16.1,-23.4,-20.2c-5.3,-4,-8.7,-6.3,-8.7,-6.3c0,0,.8,-2.4,1.6,-3.9c.8,-1.5,1.3,-4.9,1.3,-4.9c0,0,4.8,-1.8,6.3,-1.8c1.6,.1,3.5,.8,3.5,.8c0,0,.8,-3.7,-2.3,-5.3c-3.2,-1.6,-7.8,-4,-8.5,-4.5c-1.8,-1.3,-15.8,3.8,-24.5,-4.9C472.3,473.2,455,442.2,443.4,428.6c-4.8,-5.5,-12.8,-15.2,-20.3,-25.2C412.2,389,405.5,375.6,403.7,373.3c0,0,-.5,4.5,1.7,8.4c2.2,3.8,10.1,17.1,10.1,17.1c0,0,-1.8,.3,-3.3,-1.2c-1.5,-1.5,-17.4,-21.1,-17.4,-21.1c0,0,-.7,3.8,.8,5.8c1.7,2.3,13.1,17.6,13.1,17.6c0,0,-3,-.5,-4.5,-2c-1.5,-1.5,-18.5,-16,-18.5,-16c0,0,-.8,2.8,2.9,6.7c1.2,1.3,13.8,14.7,13.8,14.7c0,0,-4.4,-1,-6.2,-2.8c-1.9,-1.9,-13.5,-5.8,-13.5,-5.8c0,0,.2,1.3,1.7,2.8c2.1,2.1,5.7,4.8,8.1,8.2l-4.3,-.9c.1,1,3.7,4.6,6.6,9.2c3.4,5.4,6.1,12.2,6.9,16.1c.9,4.3,6.6,18.6,7.3,21.3c2.7,9.7,17.6,17.6,17.6,17.6c.5,2.2,-1.1,4.2,-1.1,4.2c9.6,7.8,17.4,19.9,19.5,22.3c2.2,2.4,7.6,4.1,7.6,4.1Z" class="g2_1" />

</svg>
